<svg viewBox="0 0 1024 1024" xmlns="http://www.w3.org/2000/svg">
  <!-- Background -->
  <rect width="1024" height="1024" fill="none"/>
  
  <!-- Rounded square background -->
  <rect x="150" y="180" width="724" height="724" rx="120" ry="120" fill="none" stroke="#001a3d" stroke-width="60"/>
  
  <!-- Left ear -->
  <path d="M 280 280 Q 280 180 340 180 Q 380 180 380 280 L 380 420 Q 380 480 320 480 Q 280 480 280 420 Z" fill="none" stroke="#001a3d" stroke-width="60" stroke-linecap="round" stroke-linejoin="round"/>
  
  <!-- Right ear -->
  <path d="M 744 280 Q 744 180 804 180 Q 844 180 844 280 L 844 420 Q 844 480 784 480 Q 744 480 744 420 Z" fill="none" stroke="#001a3d" stroke-width="60" stroke-linecap="round" stroke-linejoin="round"/>
  
  <!-- Head circle -->
  <circle cx="512" cy="520" r="280" fill="none" stroke="#001a3d" stroke-width="60"/>
  
  <!-- Left eye -->
  <ellipse cx="380" cy="420" rx="50" ry="80" fill="#001a3d"/>
  
  <!-- Right eye -->
  <ellipse cx="644" cy="420" rx="50" ry="80" fill="#001a3d"/>
  
  <!-- Nose -->
  <path d="M 512 520 L 500 560 L 524 560 Z" fill="#001a3d"/>
  
  <!-- Mouth -->
  <path d="M 512 560 Q 420 640 360 600" fill="none" stroke="#001a3d" stroke-width="50" stroke-linecap="round"/>
  <path d="M 512 560 Q 604 640 664 600" fill="none" stroke="#001a3d" stroke-width="50" stroke-linecap="round"/>
  
  <!-- Left whiskers -->
  <line x1="280" y1="480" x2="140" y2="440" stroke="#001a3d" stroke-width="50" stroke-linecap="round"/>
  <line x1="280" y1="540" x2="140" y2="540" stroke="#001a3d" stroke-width="50" stroke-linecap="round"/>
  <line x1="280" y1="600" x2="140" y2="640" stroke="#001a3d" stroke-width="50" stroke-linecap="round"/>
  
  <!-- Right whiskers -->
  <line x1="744" y1="480" x2="884" y2="440" stroke="#001a3d" stroke-width="50" stroke-linecap="round"/>
  <line x1="744" y1="540" x2="884" y2="540" stroke="#001a3d" stroke-width="50" stroke-linecap="round"/>
  <line x1="744" y1="600" x2="884" y2="640" stroke="#001a3d" stroke-width="50" stroke-linecap="round"/>
</svg>
